<svg xmlns="http://www.w3.org/2000/svg" viewBox="0 0 150 150"><defs><style>.cls-1{fill:#dd020d;}.cls-2,.cls-4{fill:none;stroke:#fff;stroke-linecap:round;stroke-linejoin:round;}.cls-2{stroke-width:4.11px;}.cls-3{fill:#fff;}.cls-4{stroke-width:4.93px;}</style></defs><circle cx="75" cy="75" r="75" class="cls-1"/><circle cx="75" cy="74.09" r="40.74" class="cls-2"/><circle cx="92.74" cy="59.06" r="9.34" class="cls-3"/><path d="M40.43 91.89c6.25 13.36 19.39 22.56 34.59 22.56a37.32 37.32 0 0 0 24-8.79c-6-11.9-19.68-20.24-35.67-20.24a42.91 42.91 0 0 0-22.92 6.47zM76.41 33.75a41.24 41.24 0 0 0-35.27 19.32c3.79 4.23 9.19 6.28 15 7.57C70.28 63.73 81 51 83.45 34.34a43 43 0 0 0-7.04-.59z" class="cls-2"/><path d="M76.84 114.37C76 107.49 69.29 99.08 60 99.08a27.31 27.31 0 0 0-13.48 3.42 37.67 37.67 0 0 0 27.58 12c.9-.03 1.84-.07 2.74-.13zM47.17 45.68a13.73 13.73 0 0 0 9.6 4c7.72 0 14-6.54 14.27-14.72a40.58 40.58 0 0 0-23.87 10.72z" class="cls-2"/></svg>
