<svg xmlns="http://www.w3.org/2000/svg" viewBox="0 0 150 150"><defs><style>.cls-1{fill:#dd020d;}.cls-2{fill:none;stroke:#fff;stroke-linecap:round;stroke-linejoin:round;stroke-width:3.32px;}</style></defs><circle cx="75" cy="75" r="75" class="cls-1"/><circle cx="87.43" cy="61.82" r="10" class="cls-2"/><path d="M63.07 102.5L46.76 86.18l9.29-9.29 16.08 16.55-9.06 9.06zM40.24 106.08l3-11.37a2.39 2.39 0 0 1 4-1.07l8.38 8.36a2.39 2.39 0 0 1-1.07 4l-11.37 3a2.39 2.39 0 0 1-2.94-2.92z" class="cls-2"/><path d="M49.93 70.32L77.46 99s27.31-23.22 35.22-37c9.21-17.61-5.52-35.22-25.22-24.27-18.92 9.04-37.53 32.59-37.53 32.59zM82.71 40.28l-52.05 31.7 19.27-1.66" class="cls-2"/><path d="M109.05 67.32l-34.28 53.49 2.69-21.83" class="cls-2"/></svg>
