<svg xmlns="http://www.w3.org/2000/svg" viewBox="0 0 169 169"><defs><style>.cls-1,.cls-3{fill:none;stroke:#fff;stroke-miterlimit:10;}.cls-1{stroke-width:2.76px;}.cls-2{fill:#fff;}.cls-3{stroke-width:5px;}</style></defs><title>Ресурс 16</title><g id="Слой_2" data-name="Слой 2"><g id="How_to_use_it" data-name="How to use it"><path class="cls-1" d="M84.41,139.09a23.65,23.65,0,1,1,23.78-23.6A23.83,23.83,0,0,1,84.41,139.09Z"/><path class="cls-2" d="M89.45,47.24q0,9,0,17.94a6.72,6.72,0,0,1-.17,1.64,2.44,2.44,0,0,1-2.41,1.75,2.41,2.41,0,0,1-2.25-1.94,7.89,7.89,0,0,1-.11-1.43q0-18,0-36c0-2,.53-2.9,1.85-3.22a2.35,2.35,0,0,1,3,1.88,7.93,7.93,0,0,1,.11,1.54Q89.46,38.33,89.45,47.24Z"/><path class="cls-2" d="M80.71,62.76q0,8.91,0,17.82a8.44,8.44,0,0,1-.1,1.54A2.38,2.38,0,0,1,78.35,84a2.4,2.4,0,0,1-2.43-1.85,4.33,4.33,0,0,1-.12-1q0-18.48,0-37a2.48,2.48,0,0,1,1.54-2.66,2.37,2.37,0,0,1,3.27,1.81,8.28,8.28,0,0,1,.08,1.43Q80.72,53.79,80.71,62.76Z"/><circle class="cls-3" cx="84.5" cy="84.5" r="82"/></g></g></svg>