<svg xmlns="http://www.w3.org/2000/svg" viewBox="0 0 169 169"><defs><style>.cls-1{fill:#fff;}.cls-2,.cls-3{fill:none;stroke:#fff;stroke-miterlimit:10;}.cls-2{stroke-width:3px;}.cls-3{stroke-width:5px;}</style></defs><title>Ресурс 15</title><g id="Слой_2" data-name="Слой 2"><g id="How_to_use_it" data-name="How to use it"><path class="cls-1" d="M63.2,43a3.82,3.82,0,0,0,.55.28,2.52,2.52,0,0,1,1.78,1.76,9,9,0,0,1-.13,5.5,2.83,2.83,0,0,1-3.27,1.6,2.89,2.89,0,0,1-2.35-2.63,37.41,37.41,0,0,1,0-3.79,2.94,2.94,0,0,1,2.34-2.55c.26,0,.51-.12.76-.18Z"/><path class="cls-2" d="M118.75,85.12c0,3,.08,6.07,0,9.1a30,30,0,0,1-5.66,16.66A31,31,0,0,1,89.4,123.94a31,31,0,0,1-13.07-2.09,30.52,30.52,0,0,1-11.08-7.43,30.17,30.17,0,0,1-7.93-15,34.57,34.57,0,0,1-.7-6.35c-.1-5.33-.13-10.66,0-16A30.55,30.55,0,0,1,69,52.48a29.49,29.49,0,0,1,14.52-5.95A31.06,31.06,0,0,1,118.2,71.32a41.3,41.3,0,0,1,.56,6.44c.09,2.45,0,4.91,0,7.36Zm-31,4.58c-7.92,0-24.26-.07-24.45,0s-.55.34-.56.52a31.14,31.14,0,0,0,.54,7.95,24.78,24.78,0,0,0,10.08,15.19,24.45,24.45,0,0,0,14.77,4.56,24.08,24.08,0,0,0,11.15-2.82,24.94,24.94,0,0,0,11.7-12.91,28.48,28.48,0,0,0,1.82-11.46c0-1,0-1-1.06-1Zm3.07-37.18c0,.33-.06.56-.06.79q0,14.77,0,29.53c0,.65.23.79.83.79q10.21,0,20.43,0c.66,0,.81-.24.8-.82,0-1.64,0-3.27,0-4.91a26.48,26.48,0,0,0-1.23-8.25,24.86,24.86,0,0,0-11.68-14.2A23.34,23.34,0,0,0,90.79,52.52Z"/><path class="cls-1" d="M56.5,52.33A3.2,3.2,0,0,1,54.77,55a2.64,2.64,0,0,1-3.1-.24A40,40,0,0,1,47.87,51,3,3,0,0,1,52,46.81a42.21,42.21,0,0,1,3.86,3.83A5.36,5.36,0,0,1,56.5,52.33Z"/><path class="cls-1" d="M48.81,58.56a14.32,14.32,0,0,1,2.75.49,2.79,2.79,0,0,1,1.66,3.16,2.88,2.88,0,0,1-2.7,2.45,35,35,0,0,1-3.63,0,2.84,2.84,0,0,1-2.71-3,2.88,2.88,0,0,1,2.63-2.93c.65-.06,1.31,0,2,0Z"/><circle class="cls-3" cx="84.5" cy="84.5" r="82"/></g></g></svg>