<svg xmlns="http://www.w3.org/2000/svg" viewBox="0 0 169 169"><defs><style>.cls-1,.cls-3{fill:none;stroke:#fff;stroke-miterlimit:10;}.cls-1{stroke-width:2px;}.cls-2{fill:#fff;}.cls-3{stroke-width:5px;}</style></defs><title>Ресурс 14</title><g id="Слой_2" data-name="Слой 2"><g id="How_to_use_it" data-name="How to use it"><path class="cls-1" d="M96.64,104.11l.08.19-.8-.31c-.06.16-.11.28-.14.41-.18.63-.36,1.26-.55,1.89a1.5,1.5,0,0,1-1.59,1.14l-10.38,0-7.8,0a1.48,1.48,0,0,1-1.65-1.18c-.13-.43-.25-.86-.37-1.29s-.19-.63-.31-1c-.42.17-.79.29-1.14.47a.6.6,0,0,0-.24.37q-1.41,5.35-2.8,10.7a2.79,2.79,0,0,1-.29.83,1.4,1.4,0,0,1-1.21.67c-1.37,0-2.74,0-4.12,0a1.42,1.42,0,0,1-1.46-1.4c-.08-1.38-.14-2.75-.23-4.13-.15-2.17-.32-4.33-.47-6.49-.09-1.19-.16-2.38-.25-3.57-.1-1.43-.21-2.85-.3-4.28a1.5,1.5,0,0,1,.45-1.18q3.31-3.47,6.59-7c.37-.4.7-.83,1.08-1.22a.8.8,0,0,0,.15-.78c-.44-2.71-.93-5.42-1.29-8.14-.29-2.2-.46-4.42-.59-6.63a63.8,63.8,0,0,1,.14-9.56c.08-.94.24-1.87.38-2.81.17-1.18.3-2.37.52-3.55a50.36,50.36,0,0,1,4.33-12.9c.06-.11.12-.22.17-.34a.72.72,0,0,1,.76-.43q11.25.05,22.5.08a.74.74,0,0,1,.71.53c.53,1.14,1.1,2.26,1.55,3.43.61,1.57,1.2,3.15,1.68,4.76a50.28,50.28,0,0,1,2,10.25c.12,1.4.24,2.8.31,4.21.06,1.22.1,2.44,0,3.66-.13,2.75-.22,5.5-.53,8.23-.37,3.17-1,6.31-1.44,9.47a.8.8,0,0,0,.16.6q2.83,3.11,5.69,6.19c.66.72,1.38,1.4,2,2.14a1.6,1.6,0,0,1,.38,1c-.16,2.89-.38,5.78-.57,8.67-.08,1.22-.14,2.44-.22,3.67q-.2,3.08-.41,6.16c-.07,1-.65,1.49-1.73,1.49h-3.62a1.53,1.53,0,0,1-1.65-1.24c-.71-2.72-1.43-5.44-2.14-8.16-.22-.84-.41-1.69-.67-2.53a7,7,0,0,0-.56-1.1ZM80.06,65.24a6.54,6.54,0,0,0,8.81.11A5.54,5.54,0,0,0,89,57a6.53,6.53,0,0,0-8.87-.06A5.58,5.58,0,0,0,80.06,65.24Z"/><path class="cls-2" d="M85.38,143.8c-2.61-2.12-4.63-4.57-4.9-7.92a8.16,8.16,0,0,1,.79-4,10.49,10.49,0,0,0,1.11-4.36,3.71,3.71,0,0,0-.13-.95,1.37,1.37,0,0,0-1.31-1.08,1.61,1.61,0,0,0-1.59.94,2.57,2.57,0,0,0-.07,1.56,13.25,13.25,0,0,1,.28,2.07A5.58,5.58,0,0,1,78,133.55c-.54.69-1.07,1.4-1.57,2,.06-.35.14-.78.2-1.21a8.07,8.07,0,0,0-.92-5.07A16.25,16.25,0,0,1,74,124.7a8.58,8.58,0,0,1,1.52-6.78,11,11,0,0,1,12.55-4,9.88,9.88,0,0,1,6.53,12.55,17.29,17.29,0,0,1-.69,1.63c-.72,1.51-1.5,3-1,4.77a8.82,8.82,0,0,1-2.13-2.19,3.22,3.22,0,0,1-.43-2.42,4.86,4.86,0,0,0,.11-1,1,1,0,0,0-.69-1.1,1.35,1.35,0,0,0-1.48.41,3.1,3.1,0,0,0-.51,1.13,3.05,3.05,0,0,0,.55,2.27,5.77,5.77,0,0,1-.57,7.45,14.44,14.44,0,0,1-1.12,1.25,4.77,4.77,0,0,0-1.39,4.51C85.31,143.42,85.35,143.61,85.38,143.8Z"/><path class="cls-1" d="M95.07,38.38,73.94,38.3c.32-.51.63-1,1-1.55a104.23,104.23,0,0,1,6.89-9.16l1.48-1.78a1.51,1.51,0,0,1,2.32-.12,30.16,30.16,0,0,1,2.06,2.42c1.79,2.32,3.56,4.64,5.3,7,.7.94,1.28,1.94,1.92,2.92C94.95,38.14,95,38.26,95.07,38.38Z"/><circle class="cls-3" cx="84.5" cy="84.5" r="82"/></g></g></svg>