<svg xmlns="http://www.w3.org/2000/svg" viewBox="0 0 150 150"><defs><style>.cls-1{fill:#dd020d;}.cls-2{fill:none;stroke:#fff;stroke-linecap:round;stroke-linejoin:round;stroke-width:4.99px;}.cls-3{fill:#fff;}</style></defs><circle cx="75" cy="75" r="75" class="cls-1"/><path d="M121.8 64.38a47.72 47.72 0 0 1-47.72 47.72 38.17 38.17 0 0 1-38.17-38.18 30.54 30.54 0 0 1 30.54-30.54 24.43 24.43 0 0 1 24.43 24.44 19.55 19.55 0 0 1-19.55 19.54A15.64 15.64 0 0 1 55.7 71.73a12.51 12.51 0 0 1 12.51-12.51 10 10 0 0 1 10 10 8 8 0 0 1-8 8 6.4 6.4 0 0 1-6.4-6.4" class="cls-2"/><circle cx="86.02" cy="35.48" r="5.3" class="cls-3"/><circle cx="97.8" cy="102.66" r="7.07" class="cls-3"/><circle cx="46.02" cy="109.18" r="4.21" class="cls-3"/><circle cx="48.13" cy="64.78" r="3.37" class="cls-3"/></svg>
