<svg xmlns="http://www.w3.org/2000/svg" viewBox="0 0 150 150"><defs><style>.cls-1{fill:#dd020d;}.cls-2{fill:none;stroke:#fff;stroke-linecap:round;stroke-linejoin:round;stroke-width:4.29px;}</style></defs><circle cx="75" cy="75" r="75" class="cls-1"/><path d="M76 32.16l4.28 11.39a1.1 1.1 0 0 0 1.83.36L90.45 35a1.1 1.1 0 0 1 1.9.79L91.94 48a1.1 1.1 0 0 0 1.55 1l11.08-5a1.1 1.1 0 0 1 1.43 1.43l-5 11.08a1.1 1.1 0 0 0 1 1.55l12.16-.4a1.1 1.1 0 0 1 .79 1.9l-8.89 8.31a1.1 1.1 0 0 0 .36 1.83l11.42 4.3a1.1 1.1 0 0 1 0 2.05l-11.39 4.28a1.1 1.1 0 0 0-.36 1.83l8.91 8.29a1.1 1.1 0 0 1-.79 1.9L102 91.94a1.1 1.1 0 0 0-1 1.55l5 11.08a1.1 1.1 0 0 1-1.45 1.45l-11.08-5a1.1 1.1 0 0 0-1.55 1l.4 12.16a1.1 1.1 0 0 1-1.9.79l-8.31-8.89a1.1 1.1 0 0 0-1.83.36L76 117.84a1.1 1.1 0 0 1-2.05 0l-4.28-11.39a1.1 1.1 0 0 0-1.83-.36L59.55 115a1.1 1.1 0 0 1-1.9-.79l.4-12.16a1.1 1.1 0 0 0-1.55-1l-11.08 5a1.1 1.1 0 0 1-1.42-1.48l5-11.08a1.1 1.1 0 0 0-1-1.55l-12.16.4a1.1 1.1 0 0 1-.79-1.9l8.89-8.31a1.1 1.1 0 0 0-.36-1.83L32.16 76a1.1 1.1 0 0 1 0-2.05l11.39-4.28a1.1 1.1 0 0 0 .36-1.83L35 59.55a1.1 1.1 0 0 1 .79-1.9l12.16.4a1.1 1.1 0 0 0 1-1.55L44 45.43A1.1 1.1 0 0 1 45.43 44l11.08 5a1.1 1.1 0 0 0 1.55-1l-.4-12.16a1.1 1.1 0 0 1 1.9-.79l8.31 8.89a1.1 1.1 0 0 0 1.83-.36L74 32.16a1.1 1.1 0 0 1 2 0z" class="cls-2"/><circle cx="75" cy="75" r="23.95" class="cls-2"/></svg>
