<svg xmlns="http://www.w3.org/2000/svg" viewBox="0 0 150 150"><defs><style>.cls-1{fill:#dd020d;}.cls-2{fill:none;stroke:#fff;stroke-linecap:round;stroke-linejoin:round;stroke-width:3.05px;}</style></defs><circle cx="75" cy="75" r="75" class="cls-1"/><circle cx="72.97" cy="76.37" r="8.6" class="cls-2"/><path d="M77.83696918 95.51919444L92.311445 81.04471864l7.0286414 7.0286414-14.4744758 14.4744758zM87.94759723 105.6262655l14.4744758-14.4744758 7.02864142 7.0286414-14.4744758 14.4744758zM98.0411542 115.7362655l14.47447582-14.4744758 7.0286414 7.0286414-14.4744758 14.4744758zM102.29 105.46l2.93 2.93M92.02 95.19l2.93 2.94M79.56 82.73l5.13 5.13M63.42 66.6l2.94 2.93M52.43 55.6l2.93 2.93M42.16 45.33l2.93 2.94" class="cls-2"/><circle cx="73.06" cy="76.27" r="8.6" class="cls-2"/><path d="M77.83696918 95.51919444L92.311445 81.04471864l7.0286414 7.0286414-14.4744758 14.4744758zM87.94759723 105.6262655l14.4744758-14.4744758 7.02864142 7.0286414-14.4744758 14.4744758zM98.0411542 115.7362655l14.47447582-14.4744758 7.0286414 7.0286414-14.4744758 14.4744758zM27.88993068 45.5762655l14.4744758-14.4744758 7.0286414 7.0286414-14.4744758 14.4744758zM52.33 55.39l-7.32 7.31-7.03-7.03 7.5-7.5" class="cls-2"/><path d="M45.48 48.17l6.98-6.97 7.03 7.03-7.16 7.16M48.08704464 65.7762655l14.4744758-14.4744758 7.0286414 7.0286414-14.4744758 14.4744758zM86.4 67.61l-4.46-4.38a4.24 4.24 0 0 1 .15-6l11.64-9.75 8.04 7.52L92 67.35a3.63 3.63 0 0 1-5.6.26zM78.82 70.26l4.4-4.4" class="cls-2"/></svg>
