<svg xmlns="http://www.w3.org/2000/svg" viewBox="0 0 68 65.09"><defs><style>.cls-2{fill:#275b27}.cls-4{fill:#50ff60}</style></defs><path d="M9.43 13.59s5.17-5.64 8-7.26A1.76 1.76 0 0 0 18.25 5a3.59 3.59 0 0 1 .16-.7C18.7 3.44 24-1 30.48.2A2.86 2.86 0 0 1 32.24 2l6.18.29a2.2 2.2 0 0 1 1.77-1.5c1.44-.29 5.39-.3 10.5 4.62a1.7 1.7 0 0 1 .51 1.45.54.54 0 0 0 .32.57 23.55 23.55 0 0 1 4.79 2.62 3.24 3.24 0 0 1 1.25 2.55v.4a3.22 3.22 0 0 0 .64 1.93l.22.29a3.18 3.18 0 0 0 2.32 1.26 2.91 2.91 0 0 1 1.23.24c.29.29 5.3 3.83 5.89 10.3l.14 1.5a5.66 5.66 0 0 1-1.3 4.06s0 8.58-3.84 11.41a1.85 1.85 0 0 0-.71 1.17A12 12 0 0 1 61 48.82a5.62 5.62 0 0 0-.48.78c-.52 1.22-2.18 4.2-4.73 5.4a3.47 3.47 0 0 1-2.16.35 1.5 1.5 0 0 0-1.58.87c-.92 2-3.11 5.87-6.56 6.73a11.81 11.81 0 0 1-6.37.13 2.13 2.13 0 0 0-.88-.07 41.93 41.93 0 0 1-6.11.3 1.36 1.36 0 0 0-1.26.75c-.45.89-2 1.95-7.14-.09a1.93 1.93 0 0 0-.65-.14C21 63.73 9.3 62.86 8.17 50.71A2.42 2.42 0 0 0 7.28 49C5.39 47.52.93 43.37 1.62 38.47c0 0-6.91-17.47 7.81-24.88z" fill="#2ec414"/><circle class="cls-2" cx="34.44" cy="39.28" r="4.2"/><circle class="cls-2" cx="40.59" cy="29.49" r="1.68"/><ellipse class="cls-2" cx="30.62" cy="55.1" rx="4.12" ry="1.77"/><ellipse class="cls-2" cx="17.69" cy="41.4" rx="5.33" ry="8.17" transform="rotate(-30 17.68710556 41.39924565)"/><circle class="cls-2" cx="29.69" cy="9.73" r="2.06"/><ellipse class="cls-2" cx="8.25" cy="29.34" rx="2.06" ry="2.8"/><ellipse class="cls-2" cx="51.62" cy="42.58" rx="7.5" ry="3.24" transform="rotate(-53.72 51.62342666 42.58121446)"/><ellipse class="cls-2" cx="28.94" cy="23.54" rx="5.55" ry="4.11" transform="rotate(-32.5 28.92757058 23.54422897)"/><ellipse class="cls-2" cx="15.79" cy="17.45" rx="5.97" ry="2.91" transform="rotate(-34.94 15.79122204 17.45418684)"/><ellipse class="cls-2" cx="48.12" cy="18.74" rx="4.73" ry="10.69" transform="rotate(-38.28 48.11694424 18.74963857)"/><path class="cls-4" d="M60.83 26.4c1.34 21-8.53 29.26-17.29 32.53a31.08 31.08 0 0 1-20.43.28C1.05 52.07 3 31.85 3 31.85S9.48 58.23 35.21 55s25.71-28.28 25.62-28.6z"/><path class="cls-4" d="M57.09 29.06c-1.44 3.78-6.93 1.9-9.88-.16a30.34 30.34 0 0 1-6.84-7.1c-5.83-9.39-.63-13-.63-13s-3.11 7.48 6.29 16 11.02 4.36 11.06 4.26zM22.46 48.38h-.1c5.27-3.83.31-11.19.31-11.19C18.63 31.33 14 33.1 14 33.1s2.85-4.95 8.33-.2a14.43 14.43 0 0 1 4.56 7.37c.77 3.15.63 7.08-4.43 8.11zM21.6 13s2.65 3.24-2.36 7.07c0 0-5.15 4.56-9.27 2.21a11.72 11.72 0 0 0 7.95-2.36s4.71-3.53 3.68-6.92zm25.99 27.5c-3.66 5.85-1.77 9.72-1.77 9.72s-4.71-2.36.88-10.89c0 0 5.3-7.65 9.72-5.3 0-.03-5.89 1.76-8.83 6.47z"/></svg>
