<svg xmlns="http://www.w3.org/2000/svg" viewBox="0 0 119.67 107.4"><defs><style>.cls-1{fill:#878787}.cls-3{fill:#cccece}</style></defs><path class="cls-1" d="M65.63 34.62S100 45.78 108.7 50c0 0-27.32 1.4-35-1.74s-8.07-13.64-8.07-13.64zM7.57 32.21s-12 17.91-5.8 27.41c0 0 7.61-16.81 9.06-19.37s-3.26-8.04-3.26-8.04zm58.06 68.38h19.28s-1.51 6.09-9 5.71-10.28-5.71-10.28-5.71z"/><path d="M8.46 41.63a7.9 7.9 0 0 0-.26-6.39C6.35 31.53 4.55 24.49 12 17.45A174.7 174.7 0 0 1 32 1.39 7.8 7.8 0 0 1 40.29 1C45 3.63 52.83 10.64 64.87 28.66A7.94 7.94 0 0 1 65.93 31c.2.73.5 1.75.9 2.93 1.59 4.69 4.73 11.77 9.34 12.17 6.93.6 30.72.9 36.45 4.52 4.87 3.07 8.07 9.81 6.75 23a7.6 7.6 0 0 1-1.56 4 7.24 7.24 0 0 1-3.52 2.38 8 8 0 0 0-5.1 4.8 35 35 0 0 0-1.91 9.92 7.76 7.76 0 0 1-5.05 6.82 22.12 22.12 0 0 1-9.79.88s-41.87-2.11-43.38.3c0 0-3 8.67-20.3 2.48l-.32-.11c-2.36-.72-35.06-11.35-27.1-44.92a7.75 7.75 0 0 1 .32-1z" fill="#adadad"/><path class="cls-1" d="M37.7 46.41a.28.28 0 0 1-.31.28.28.28 0 0 1-.29-.34.27.27 0 0 1 .33-.25.28.28 0 0 1 .27.31zm7.17-7.58a.28.28 0 0 1 .29.3.28.28 0 0 1-.34.3.27.27 0 0 1-.26-.32.28.28 0 0 1 .31-.28zm4.19 1.33c-.2 0-.33-.08-.35-.26a.28.28 0 0 1 .3-.34.27.27 0 0 1 .3.29.28.28 0 0 1-.25.31zm-9.75-7.43c.15-.25.34-.3.53-.22a.37.37 0 0 1 .15.56.36.36 0 0 1-.5.18.37.37 0 0 1-.18-.52zm6.04 8.37c.33 0 .53.17.54.5a.51.51 0 0 1-1 0 .48.48 0 0 1 .46-.5zM31.58 49a.28.28 0 0 1 .29-.3.28.28 0 0 1 .31.32.27.27 0 0 1-.31.27.28.28 0 0 1-.29-.29zm-1.87.2c.21 0 .32.12.31.31a.28.28 0 0 1-.34.3.27.27 0 0 1-.26-.32.28.28 0 0 1 .29-.29zm-14.14-7.44a.66.66 0 0 1-.68-.69.65.65 0 0 1 .7-.66.63.63 0 0 1 .65.66.65.65 0 0 1-.67.69zm5.1-18.53a1 1 0 1 1 1-1 1 1 0 0 1-1 1zM22 27.18a.28.28 0 0 1-.28.31.28.28 0 0 1-.32-.31.27.27 0 0 1 .3-.28.28.28 0 0 1 .3.28zm-6.14 25.64c.17 0 .31.09.31.27a.3.3 0 0 1-.31.33.29.29 0 0 1-.3-.33c0-.18.12-.27.3-.27zm-1.08-18.87a.28.28 0 0 1 .27.31.28.28 0 0 1-.35.28.27.27 0 0 1-.25-.33.28.28 0 0 1 .33-.26zm-1.91-3.42a.28.28 0 0 1-.31.28.28.28 0 0 1-.29-.34.27.27 0 0 1 .33-.25.28.28 0 0 1 .27.31zM11.29 47c0 .19-.13.31-.31.3a.26.26 0 0 1-.28-.3c0-.2.1-.33.31-.3a.33.33 0 0 1 .28.3zM41.5 27.18a.28.28 0 0 1 .29-.3.28.28 0 0 1 .31.32.27.27 0 0 1-.31.27.28.28 0 0 1-.29-.29zm2.14-.54c.33 0 .53.17.54.5a.51.51 0 0 1-1 0 .48.48 0 0 1 .46-.5zM40.3 69.36a.28.28 0 0 1 .29-.3.28.28 0 0 1 .31.32.27.27 0 0 1-.31.27.28.28 0 0 1-.29-.29zM35.6 6.35a.28.28 0 0 1-.31.28.28.28 0 0 1-.29-.34.27.27 0 0 1 .32-.29.28.28 0 0 1 .28.35zm-6.13 2.58a.28.28 0 0 1 .29-.3.28.28 0 0 1 .31.32.27.27 0 0 1-.31.27.28.28 0 0 1-.29-.29zm-1.87.21c.21 0 .32.12.31.31a.28.28 0 0 1-.34.3.27.27 0 0 1-.26-.32.28.28 0 0 1 .29-.29z"/><path class="cls-1" d="M35.6 6.35a.28.28 0 0 1-.31.28.28.28 0 0 1-.29-.34.27.27 0 0 1 .32-.29.28.28 0 0 1 .28.35zm-9.5 11.96a.28.28 0 0 1-.31.27.27.27 0 0 1-.29-.3.3.3 0 1 1 .6 0zm3.37-9.38a.28.28 0 0 1 .29-.3.28.28 0 0 1 .31.32.27.27 0 0 1-.31.27.28.28 0 0 1-.29-.29zm-1.87.21c.21 0 .32.12.31.31a.28.28 0 0 1-.34.3.27.27 0 0 1-.26-.32.28.28 0 0 1 .29-.29zm25.68 13.29c.33 0 .53.17.54.5a.51.51 0 0 1-1 0 .48.48 0 0 1 .46-.5zm-7.53 49.05c-.2 0-.33-.08-.35-.26a.28.28 0 0 1 .3-.34.27.27 0 0 1 .3.29.28.28 0 0 1-.25.31zM20.19 92.8a1 1 0 0 1-1.07-1.08 1 1 0 0 1 1.1-1 1 1 0 0 1 1 1 1 1 0 0 1-1.03 1.08zm30.69-1.4a.44.44 0 0 1-.48.44.44.44 0 0 1-.46-.54.43.43 0 0 1 .52-.4.45.45 0 0 1 .42.5zm-9.66 4.07a.44.44 0 0 1 .46-.47.43.43 0 0 1 .49.51.43.43 0 0 1-.49.43.44.44 0 0 1-.46-.47zM42 72.43c.33 0 .53.17.54.5a.51.51 0 0 1-1 0 .48.48 0 0 1 .46-.5zm-7.31-4.93a.28.28 0 0 1-.31.28.28.28 0 0 1-.29-.34.27.27 0 0 1 .33-.25.28.28 0 0 1 .27.31zm-6.12 2.58a.28.28 0 0 1 .29-.3.28.28 0 0 1 .31.32.27.27 0 0 1-.31.27.28.28 0 0 1-.29-.29z"/><path class="cls-1" d="M42 72.43c.33 0 .53.17.54.5a.51.51 0 0 1-1 0 .48.48 0 0 1 .46-.5zm-7.31-4.93a.28.28 0 0 1-.31.28.28.28 0 0 1-.29-.34.27.27 0 0 1 .33-.25.28.28 0 0 1 .27.31zm-6.12 2.58a.28.28 0 0 1 .29-.3.28.28 0 0 1 .31.32.27.27 0 0 1-.31.27.28.28 0 0 1-.29-.29zm44.78-16.87c.19 0 .33.1.34.29a.33.33 0 0 1-.34.36.31.31 0 0 1-.35-.36c0-.19.15-.29.35-.29zM100.39 68c.19 0 .33.1.34.29a.33.33 0 0 1-.34.36.31.31 0 0 1-.33-.36c0-.22.14-.29.33-.29zM90.22 48.69c.19 0 .33.1.34.29a.33.33 0 0 1-.34.36.31.31 0 0 1-.33-.36c0-.19.11-.29.33-.29zm20.04 8.18a.72.72 0 0 1-.74-.75.71.71 0 0 1 .76-.72.69.69 0 0 1 .71.72.71.71 0 0 1-.73.75zm-7.46 23.55c.19 0 .33.1.34.29a.33.33 0 0 1-.34.36.31.31 0 0 1-.33-.36c0-.19.14-.29.33-.29zm-8.33-26.96c.12 0 .22.06.22.19a.22.22 0 0 1-.22.24.21.21 0 0 1-.22-.24c0-.13.09-.19.22-.19zm-33.76 27.4c.33 0 .53.17.54.5a.51.51 0 0 1-1 0 .48.48 0 0 1 .46-.5zm-.48-2.27a.28.28 0 0 1 .29.3.28.28 0 0 1-.34.3.27.27 0 0 1-.26-.32.28.28 0 0 1 .31-.28zm4.19 1.33c-.2 0-.33-.08-.35-.26a.28.28 0 0 1 .3-.34.27.27 0 0 1 .3.29.28.28 0 0 1-.25.31zm30.17 7.37a.72.72 0 0 1-.74-.75.71.71 0 0 1 .76-.72.69.69 0 0 1 .71.72.71.71 0 0 1-.73.75zM79 50.47a.72.72 0 0 1-.74-.75.71.71 0 0 1 .76-.72.69.69 0 0 1 .71.72.71.71 0 0 1-.73.75zm29.85 28.32a.72.72 0 0 1-.74-.75.71.71 0 0 1 .76-.72.69.69 0 0 1 .71.72.71.71 0 0 1-.73.75zM83 79.26a1 1 0 1 1 1-1 1 1 0 0 1-1 1zm1.36 3.95a.28.28 0 0 1-.28.31.28.28 0 0 1-.32-.31.27.27 0 0 1 .3-.28.28.28 0 0 1 .3.28zm-9.13 3.35a.28.28 0 0 1-.31.28.28.28 0 0 1-.29-.34.27.27 0 0 1 .33-.25.28.28 0 0 1 .27.31zM34.46 97.15l.33-.17a.92.92 0 0 1 .53.29 1.39 1.39 0 0 1-.86-.12zm32.82-31.48a.72.72 0 0 1-.74-.75.71.71 0 0 1 .76-.72.69.69 0 0 1 .71.72.71.71 0 0 1-.73.75z"/><path class="cls-1" d="M67.28 65.67a.72.72 0 0 1-.74-.75.71.71 0 0 1 .76-.72.69.69 0 0 1 .71.72.71.71 0 0 1-.73.75zm-39.07-7.3a.28.28 0 0 1-.31.27.27.27 0 0 1-.29-.3.3.3 0 1 1 .6 0zM14.37 83.93a.66.66 0 0 1-.68-.69.65.65 0 0 1 .7-.66.63.63 0 0 1 .65.66.65.65 0 0 1-.67.69zm38.7 2.24a.28.28 0 0 1-.31.28.28.28 0 0 1-.29-.34.27.27 0 0 1 .33-.25.28.28 0 0 1 .27.31zm-9.5 11.96a.28.28 0 0 1-.31.27.27.27 0 0 1-.29-.3.3.3 0 1 1 .6 0zm3.37-9.38a.28.28 0 0 1 .29-.3.28.28 0 0 1 .31.32.27.27 0 0 1-.31.27.28.28 0 0 1-.29-.29zm-1.87.25c.21 0 .32.12.31.31a.28.28 0 0 1-.34.3.27.27 0 0 1-.26-.32.28.28 0 0 1 .29-.29zm-34.98.19c0 .19-.13.31-.31.3a.26.26 0 0 1-.28-.29c0-.2.1-.33.31-.3a.33.33 0 0 1 .28.29zm9.37-23.79a1 1 0 1 1 1-1 1 1 0 0 1-1 1z"/><path class="cls-1" d="M14.37 83.93a.66.66 0 0 1-.68-.69.65.65 0 0 1 .7-.66.63.63 0 0 1 .65.66.65.65 0 0 1-.67.69zm6.43-14.58a.28.28 0 0 1-.28.31.28.28 0 0 1-.32-.31.27.27 0 0 1 .3-.28.28.28 0 0 1 .3.28zm32.27 16.82a.28.28 0 0 1-.31.28.28.28 0 0 1-.29-.34.27.27 0 0 1 .33-.25.28.28 0 0 1 .27.31zm-9.5 11.96a.28.28 0 0 1-.31.27.27.27 0 0 1-.29-.3.3.3 0 1 1 .6 0zm3.37-9.38a.28.28 0 0 1 .29-.3.28.28 0 0 1 .31.32.27.27 0 0 1-.31.27.28.28 0 0 1-.29-.29zM13.57 76.12a.28.28 0 0 1 .27.31.28.28 0 0 1-.35.28.27.27 0 0 1-.25-.33.28.28 0 0 1 .33-.26zm-1.9-3.42a.28.28 0 0 1-.31.28.28.28 0 0 1-.29-.34.27.27 0 0 1 .33-.25.28.28 0 0 1 .27.31zM45.07 89c.21 0 .32.12.31.31a.28.28 0 0 1-.34.3.27.27 0 0 1-.26-.32.28.28 0 0 1 .29-.29zm-34.98.19c0 .19-.13.31-.31.3a.26.26 0 0 1-.28-.29c0-.2.1-.33.31-.3a.33.33 0 0 1 .28.29zm54.76-25.13c.19 0 .33.1.34.29a.33.33 0 0 1-.34.36.31.31 0 0 1-.33-.36c0-.2.13-.29.33-.29zm-8.57 5.22c.19 0 .33.1.34.29a.33.33 0 0 1-.34.36.31.31 0 0 1-.33-.36c.05-.2.13-.29.33-.29zm7.29-25.97a.72.72 0 0 1-.74-.75.71.71 0 0 1 .76-.72.69.69 0 0 1 .71.72.71.71 0 0 1-.73.75zm-.23 26.85c.12 0 .22.06.22.19a.22.22 0 0 1-.22.24.21.21 0 0 1-.22-.24c.01-.13.09-.19.22-.19zm-8.71-9.44a.72.72 0 0 1-.74-.75.71.71 0 0 1 .76-.72.69.69 0 0 1 .71.72.71.71 0 0 1-.73.75z"/><path class="cls-1" d="M64.85 64.06c.19 0 .33.1.34.29a.33.33 0 0 1-.34.36.31.31 0 0 1-.33-.36c0-.2.13-.29.33-.29zm-8.57 5.22c.19 0 .33.1.34.29a.33.33 0 0 1-.34.36.31.31 0 0 1-.33-.36c.05-.2.13-.29.33-.29zm-7.67-12.05a.72.72 0 0 1-.74-.75.71.71 0 0 1 .76-.72.69.69 0 0 1 .71.72.71.71 0 0 1-.73.75zm14.73 12.93c.12 0 .22.06.22.19a.22.22 0 0 1-.22.24.21.21 0 0 1-.22-.24c.01-.13.09-.19.22-.19zm-5.75 25.35a.44.44 0 0 1-.49.43.43.43 0 0 1-.46-.47.48.48 0 1 1 .95 0zm-27.91.28c.27 0 .48.14.49.42a.48.48 0 0 1-.49.52.46.46 0 0 1-.48-.52c0-.28.19-.42.48-.42zm8.58.02c.33 0 .5.19.49.48a.44.44 0 0 1-.53.47.43.43 0 0 1-.41-.51.45.45 0 0 1 .45-.44zM9.22 92.36c-.07.3-.2.48-.49.48a.42.42 0 0 1-.45-.45c0-.32.16-.51.49-.48a.52.52 0 0 1 .45.45zm56.26-39.64a.72.72 0 0 1-.74-.75.71.71 0 0 1 .76-.72.69.69 0 0 1 .71.72.71.71 0 0 1-.73.75zm12.45 45.07a.66.66 0 0 1-.68-.69.65.65 0 0 1 .7-.66.63.63 0 0 1 .65.66.65.65 0 0 1-.67.69zm4.8-6.59a.28.28 0 0 1-.31-.27.28.28 0 0 1 .31-.33.27.27 0 0 1 .29.3.28.28 0 0 1-.29.3zm-5.6-1.2a.28.28 0 0 1 .27.31.28.28 0 0 1-.35.28.27.27 0 0 1-.25-.33.28.28 0 0 1 .33-.26zm-3.48 13c0 .19-.13.31-.31.3a.26.26 0 0 1-.28-.29c0-.2.1-.33.31-.3a.33.33 0 0 1 .28.29z"/><path class="cls-1" d="M65.48 52.72a.72.72 0 0 1-.74-.75.71.71 0 0 1 .76-.72.69.69 0 0 1 .71.72.71.71 0 0 1-.73.75zm12.45 45.07a.66.66 0 0 1-.68-.69.65.65 0 0 1 .7-.66.63.63 0 0 1 .65.66.65.65 0 0 1-.67.69zM35.23 57.8a.28.28 0 0 1 .29.3.28.28 0 0 1-.34.3.27.27 0 0 1-.26-.32.28.28 0 0 1 .31-.28zm47.5 33.4a.28.28 0 0 1-.31-.27.28.28 0 0 1 .31-.33.27.27 0 0 1 .29.3.28.28 0 0 1-.29.3zm-5.6-1.2a.28.28 0 0 1 .27.31.28.28 0 0 1-.35.28.27.27 0 0 1-.25-.33.28.28 0 0 1 .33-.26zm-3.48 13c0 .19-.13.31-.31.3a.26.26 0 0 1-.28-.29c0-.2.1-.33.31-.3a.33.33 0 0 1 .28.29zm3.42-61.9c.33 0 .53.17.54.5a.51.51 0 0 1-1 0 .48.48 0 0 1 .46-.5z"/><path class="cls-3" d="M59.9 41.54C59.67 49 51.11 56 36.94 56 24 56 14.08 49.74 14.12 41.44c0-8.53 9.93-14.56 23.07-14.65 12.55-.09 22.72 6.59 22.71 14.75z"/><path class="cls-1" d="M18.36 40.43c-.52-6.64 9.14-12.85 20.35-12.71 10.06.12 19.84 5.68 19.65 13-.18 6.81-9 12.77-20.54 12.63-10.41-.17-19.82-5.8-19.46-12.92z"/><path class="cls-3" d="M48.25 35.52c-1.1 0-1.62-.4-1.64-1.25a1.41 1.41 0 0 1 1.56-1.49 1.36 1.36 0 0 1 1.49 1.42c-.01.86-.73 1.21-1.41 1.32zm-.4 7.98c0 .48-.23.72-.56.76s-.67-.23-.68-.67a.6.6 0 0 1 .55-.68.61.61 0 0 1 .69.59z"/><path class="cls-1" d="M107.52 71.83c-2-.55-3.85-1.36-4.65-3.51-1.76-4.23.51-7.77 4.25-8.31a6.16 6.16 0 0 1 7 5.38c.46 3-1.86 5.75-5.25 6.27-.48.06-.94-.1-1.35.17z"/><path class="cls-3" d="M107.52 71.83c.74-.24 1.49-.46 2.23-.72a5.15 5.15 0 0 0 3.46-6.11c-.83-3-3.38-4.75-6.16-4.22a5.45 5.45 0 0 0-4.43 5.89c.05.56.17 1.11.25 1.66-1.9-3.15-1.07-6.68 2.12-9 2.47-1.82 6.81-1.1 9 1.49a6.64 6.64 0 0 1-.51 8.92 7 7 0 0 1-5.96 2.09z"/><path class="cls-3" d="M107.32 64.42a.76.76 0 0 1 .82.83.72.72 0 0 1-.74.74c-.49 0-.89-.2-.92-.74s.34-.78.84-.83zm-32.03-4.34c5.14-7.3 16.41-7 21.37.63 3.8 5.83 4.26 12.68.8 18.71-2.91 5.06-7.27 7.58-12.68 7.28-4.94-.31-8.86-2.9-11.34-7.8-2.18-4.32-2.91-8.89-1-13.64l.22.17c.75 1.12.2 2.32.12 3.46-.53 7.5 4.73 13.91 11.38 13.81 5.58-.08 10.51-5 11.07-11.13.63-6.77-3.16-12.76-8.9-14.18a10.19 10.19 0 0 0-8.69 2c-.67.48-1.24 1.3-2.19.92z"/><path class="cls-1" d="M75.29 60.09c1.67-.78 2.88-2.34 4.64-3.07 7-2.91 14.5 2.23 15.91 9.89 1.13 6.14-1 12.31-6.58 15.32a11.23 11.23 0 0 1-14.7-3.84 14.94 14.94 0 0 1-2.26-11.57c.1-.51.12-1 .17-1.57"/><path class="cls-3" d="M80.23 69.82c-1.36 0-2-.62-2-1.93 0-1.47.77-2.27 1.93-2.3s1.84.93 1.84 2.19a2 2 0 0 1-1.77 2.04z"/><path class="cls-1" d="M42.74 19.26c-1.52 1.44-3.16 2.58-5.42 2.15-4.53-.7-6.37-4.48-4.89-8a6.16 6.16 0 0 1 8.21-3.15c2.79 1.16 3.94 4.58 2.63 7.75-.16.45-.54.76-.53 1.25z"/><path class="cls-3" d="M42.74 19.26c.18-.76.38-1.52.54-2.28a5.15 5.15 0 0 0-3.44-6.14c-3-.86-5.82.41-6.8 3.07a5.45 5.45 0 0 0 2.73 6.85c.5.24 1 .43 1.55.65-3.68 0-6.27-2.56-6.62-6.51-.27-3.06 2.6-6.39 6-6.92A6.64 6.64 0 0 1 44 13a7 7 0 0 1-1.26 6.26z"/><path class="cls-3" d="M36.45 15.37a.76.76 0 0 1 1.14-.27.72.72 0 0 1 .25 1 .78.78 0 0 1-1.11.4c-.49-.24-.5-.67-.28-1.13z"/><path class="cls-1" d="M51.78 69.56c-1.52 1.44-3.16 2.58-5.42 2.15-4.53-.7-6.37-4.48-4.89-8a6.16 6.16 0 0 1 8.21-3.15c2.79 1.16 3.94 4.58 2.63 7.75-.16.45-.55.76-.53 1.25z"/><path class="cls-3" d="M51.78 69.56c.18-.76.38-1.52.54-2.28a5.15 5.15 0 0 0-3.44-6.14c-3-.86-5.82.41-6.8 3.07a5.45 5.45 0 0 0 2.73 6.85c.5.24 1 .43 1.55.65-3.68 0-6.27-2.56-6.62-6.51-.27-3.06 2.6-6.39 6-6.92a6.64 6.64 0 0 1 7.36 5.07 7 7 0 0 1-1.32 6.21z"/><path class="cls-3" d="M49.7 64.77a.76.76 0 0 1 1.14-.27.72.72 0 0 1 .25 1 .78.78 0 0 1-1.11.4c-.49-.24-.5-.67-.28-1.13zM18 74c2.45-3.81 9.05-4.76 16.4-.35 6.7 4 9.9 10.36 7.3 14.65s-9.67 4.46-16.51.41C18.64 84.83 15.45 78.2 18 74z"/><path class="cls-1" d="M39.17 87.48c-1.79 3.6-8.74 3.82-14.5.26-5.17-3.19-8.51-9.12-6.15-12.83 2.21-3.47 8.65-3.81 14.57-.16 5.36 3.31 8.51 9.16 6.08 12.73z"/><path class="cls-3" d="M22.16 80.73c.56.35.71.71.46 1.16a.85.85 0 0 1-1.27.29A.82.82 0 0 1 21 81a.86.86 0 0 1 1.16-.27zm2.69-4.02c.15-.25.34-.3.53-.22a.37.37 0 0 1 .15.56.36.36 0 0 1-.5.18.37.37 0 0 1-.18-.52z"/><path class="cls-1" d="M70.42 85.84a2.8 2.8 0 0 1-2.53 1 2.63 2.63 0 0 1-2.28-3.71 2.87 2.87 0 0 1 3.83-1.47 2.69 2.69 0 0 1 1.23 3.61c-.07.2-.25.34-.25.57z"/><path class="cls-3" d="M70.42 85.84c.08-.35.18-.71.25-1.06a2.4 2.4 0 0 0-1.6-2.86 2.5 2.5 0 0 0-3.17 1.43 2.54 2.54 0 0 0 1.27 3.19c.24.11.48.2.72.3a3.05 3.05 0 0 1-3.09-3 3.33 3.33 0 0 1 2.78-3.23A3.1 3.1 0 0 1 71 82.94a3.27 3.27 0 0 1-.58 2.9z"/><path class="cls-3" d="M68.19 85.57a.35.35 0 0 1 .53-.13.33.33 0 0 1 .12.48.36.36 0 0 1-.52.19c-.23-.11-.23-.32-.13-.54z"/><path class="cls-1" d="M13.79 58.13a2.8 2.8 0 0 1-2.53 1A2.63 2.63 0 0 1 9 55.42a2.87 2.87 0 0 1 3.83-1.47A2.69 2.69 0 0 1 14 57.56c0 .19-.21.34-.21.57z"/><path class="cls-3" d="M13.79 58.13c.08-.35.18-.71.25-1.06a2.4 2.4 0 0 0-1.6-2.86 2.5 2.5 0 0 0-3.17 1.43 2.54 2.54 0 0 0 1.27 3.19c.24.11.48.2.72.3a3.05 3.05 0 0 1-3.09-3A3.33 3.33 0 0 1 11 52.86a3.1 3.1 0 0 1 3.43 2.36 3.27 3.27 0 0 1-.64 2.91z"/><path class="cls-3" d="M11.56 57.86a.35.35 0 0 1 .53-.13.33.33 0 0 1 .12.48.36.36 0 0 1-.52.19c-.23-.13-.23-.33-.13-.54z"/><path class="cls-1" d="M101.29 98a3.06 3.06 0 0 1-2.77 1.1A2.88 2.88 0 0 1 96 95a3.15 3.15 0 0 1 4.2-1.61 2.94 2.94 0 0 1 1.34 4c-.06.17-.26.33-.25.61z"/><path class="cls-3" d="M101.29 98c.09-.39.2-.77.28-1.17a2.63 2.63 0 0 0-1.76-3.14 2.74 2.74 0 0 0-3.48 1.57 2.79 2.79 0 0 0 1.39 3.5c.26.12.53.22.79.33a3.35 3.35 0 0 1-3.38-3.33 3.65 3.65 0 0 1 3-3.54 3.39 3.39 0 0 1 3.76 2.59 3.58 3.58 0 0 1-.6 3.19z"/><path class="cls-3" d="M98.24 96.77a.39.39 0 0 1 .58-.14.37.37 0 0 1 .13.52.4.4 0 0 1-.57.2c-.25-.12-.25-.35-.14-.58zM83.59 64.66c.15-.25.34-.3.53-.22a.37.37 0 0 1 .15.56.36.36 0 0 1-.5.18.37.37 0 0 1-.18-.52zM26.35 83.34c.15-.25.34-.3.53-.22a.37.37 0 0 1 .15.56.36.36 0 0 1-.5.18.37.37 0 0 1-.18-.52z"/></svg>
