<svg xmlns="http://www.w3.org/2000/svg" viewBox="0 0 169.31 169.07"><defs><style>.cls-1{fill:none;stroke:#fff;stroke-linecap:round;stroke-linejoin:round;stroke-width:5px;}</style></defs><circle cx="84.77" cy="84.54" r="82.04" class="cls-1"/><path d="M165.3 95.8a25.12 25.12 0 1 0-10.47 28.08A81.5 81.5 0 0 0 165.3 95.8zM73.63 34a16.68 16.68 0 0 0-6.05 1.15c-5.3-10-12.73-17.91-21.45-22.88a79.32 79.32 0 0 0-23.46 123.67q1.29.08 2.6.08c26.08 0 47.57-24.82 50.63-56.86 9.59-1.32 17-10.88 17-22.5C92.94 44.14 84.29 34 73.63 34z" class="cls-1"/></svg>
