<svg xmlns="http://www.w3.org/2000/svg" viewBox="0 0 97.22 87.55"><defs><style>.cls-1{fill:#878787}.cls-3{fill:#cccece}</style></defs><path class="cls-1" d="M47.59 3s15.58-5.44 21.07-1.69a13.69 13.69 0 0 1 6.06 8.95zm42.74 46.74S88.68 67 86.26 70.29s-12.42 2.6-12.42 2.6-.49 6.91-3.64 8.18a13.22 13.22 0 0 1-5.32 1.11zM17.47 74.6S4.63 72 2.58 67.07a11.4 11.4 0 0 1-.18-8.8z"/><path d="M9.84 21.23a4.25 4.25 0 0 1 .61-.43L37.12 5.17s6.4-8 20 0c0 0 10 2.9 14.79 2.25a4.15 4.15 0 0 1 2 .24c3.19 1.19 11.8 5.58 18.51 19.44q.08.16.17.32c.66 1.11 9.58 5.8.78 19.25-.16.24-.41.75-.41.75s.08 3.87-6.18 9A23.53 23.53 0 0 0 79 67.78a4.27 4.27 0 0 0-.63 1.41c-.66 2.74-3.63 12.48-12.74 13.89a4.56 4.56 0 0 0-.69.16c-2.78.88-14.69 11.18-41.34-3.6 0 0-11.23-.13-16.41-14-1.83-4.9-10.11-8.07-6.14-14.58.09-.15 0-.35-.07-.52-.44-2.16-3.42-18.85 8.86-29.31z" fill="#adadad"/><path class="cls-1" d="M59.56 10.16a1.19 1.19 0 0 1-1.23-1.24 1.18 1.18 0 0 1 1.27-1.2 1.15 1.15 0 0 1 1.17 1.19 1.18 1.18 0 0 1-1.21 1.25zM24 17.86a1 1 0 0 1-1-1.08 1 1 0 0 1 1.1-1 1 1 0 0 1 1 1 1 1 0 0 1-1.1 1.08zm49.79 14.61a.53.53 0 0 1-.55-.55.53.53 0 0 1 .56-.53.51.51 0 0 1 .52.53.52.52 0 0 1-.53.55zM66 13.43a.53.53 0 0 1-.55-.55.53.53 0 0 1 .56-.53.51.51 0 0 1 .52.53.52.52 0 0 1-.53.55zm-25.11 4.9a.53.53 0 0 1-.55-.55.53.53 0 0 1 .56-.53.51.51 0 0 1 .52.53.52.52 0 0 1-.53.55zm2.6 4.04a.53.53 0 0 1-.55-.55.53.53 0 0 1 .56-.53.51.51 0 0 1 .52.53.52.52 0 0 1-.53.55zm27.9 4.81a1.19 1.19 0 0 1-1.23-1.24 1.18 1.18 0 0 1 1.27-1.2 1.15 1.15 0 0 1 1.17 1.19 1.18 1.18 0 0 1-1.21 1.25zM41.47 38.53a.53.53 0 0 1-.55-.55.53.53 0 0 1 .56-.53.51.51 0 0 1 .52.55.52.52 0 0 1-.53.53zm27.41-1.44a.53.53 0 0 1-.55-.55.53.53 0 0 1 .57-.54.51.51 0 0 1 .52.53.52.52 0 0 1-.54.56zm3.63 26.66a1 1 0 0 1-1.07-1.08 1 1 0 0 1 1.1-1 1 1 0 0 1 1 1 1 1 0 0 1-1.03 1.08zm9.36 2.2a.53.53 0 0 1-.55-.55.53.53 0 0 1 .56-.53.51.51 0 0 1 .52.53.52.52 0 0 1-.53.55zm-14.14-8.37a.53.53 0 0 1-.55-.55.53.53 0 0 1 .56-.53.51.51 0 0 1 .52.53.52.52 0 0 1-.53.55zm11.74 3.08a1.19 1.19 0 0 1-1.23-1.24 1.18 1.18 0 0 1 1.27-1.2 1.15 1.15 0 0 1 1.17 1.19 1.18 1.18 0 0 1-1.21 1.25zm6.44 3.27a.53.53 0 0 1-.55-.55.53.53 0 0 1 .56-.53.51.51 0 0 1 .52.53.52.52 0 0 1-.53.55zM77 70.56a.53.53 0 0 1-.55-.55.53.53 0 0 1 .56-.53.51.51 0 0 1 .52.53.52.52 0 0 1-.53.55zM37.43 14a.53.53 0 0 1-.55-.55.53.53 0 0 1 .56-.53.51.51 0 0 1 .52.53.52.52 0 0 1-.53.55zm27.9 4.82a1.19 1.19 0 0 1-1.23-1.24 1.18 1.18 0 0 1 1.27-1.2 1.15 1.15 0 0 1 1.17 1.19 1.18 1.18 0 0 1-1.21 1.25zm-11 7.99a1 1 0 0 1-1.07-1.08 1 1 0 0 1 1.1-1 1 1 0 0 1 1 1 1 1 0 0 1-1.03 1.08zm17.44-4.73a.53.53 0 0 1-.55-.55.53.53 0 0 1 .56-.53.51.51 0 0 1 .52.53.52.52 0 0 1-.53.55zM48.39 38.53a.53.53 0 0 1-.55-.55.53.53 0 0 1 .56-.53.51.51 0 0 1 .52.53.52.52 0 0 1-.53.55zm17.03-5.77a.53.53 0 0 1-.55-.55.53.53 0 0 1 .56-.53.51.51 0 0 1 .52.53.52.52 0 0 1-.53.55zM15.21 68.83a.53.53 0 0 1-.55-.55.53.53 0 0 1 .56-.53.51.51 0 0 1 .52.53.52.52 0 0 1-.53.55zm59.44-23.08a.53.53 0 0 1-.55-.55.53.53 0 0 1 .56-.53.51.51 0 0 1 .52.53.52.52 0 0 1-.53.55zM16.07 67.1a.53.53 0 0 1-.55-.55.53.53 0 0 1 .56-.53.51.51 0 0 1 .52.53.52.52 0 0 1-.53.55zm3.38 8.27a1.19 1.19 0 0 1-1.23-1.24 1.18 1.18 0 0 1 1.27-1.2 1.15 1.15 0 0 1 1.17 1.19 1.18 1.18 0 0 1-1.21 1.25zM55 72.58a.53.53 0 0 1-.55-.55.53.53 0 0 1 .55-.53.51.51 0 0 1 .52.53.52.52 0 0 1-.52.55zm-7.76-19.04a.53.53 0 0 1-.55-.55.53.53 0 0 1 .56-.53.51.51 0 0 1 .52.53.52.52 0 0 1-.53.55zm-1.82 31.07a1.19 1.19 0 0 1-1.23-1.24 1.18 1.18 0 0 1 1.27-1.2 1.15 1.15 0 0 1 1.17 1.19 1.18 1.18 0 0 1-1.21 1.25zm4.7-7.41a.53.53 0 0 1-.55-.55.53.53 0 0 1 .56-.53.51.51 0 0 1 .52.53.52.52 0 0 1-.53.55zm23.96-32.9a.53.53 0 0 1-.55-.55.53.53 0 0 1 .56-.53.51.51 0 0 1 .52.53.52.52 0 0 1-.53.55zm-41.65 1.35a1.19 1.19 0 0 1-1.23-1.24 1.18 1.18 0 0 1 1.27-1.2 1.15 1.15 0 0 1 1.17 1.19 1.18 1.18 0 0 1-1.21 1.25zm3.15 21.27a1 1 0 0 1-1.07-1.08 1 1 0 0 1 1.1-1 1 1 0 0 1 1 1 1 1 0 0 1-1.03 1.08zM60.8 81.24a.53.53 0 0 1-.55-.55.53.53 0 0 1 .56-.53.51.51 0 0 1 .52.53.52.52 0 0 1-.53.55zM53 62.19a.53.53 0 0 1-.55-.55.53.53 0 0 1 .56-.53.51.51 0 0 1 .52.53.52.52 0 0 1-.53.55zM29.64 78.64a.53.53 0 0 1-.55-.55.53.53 0 0 1 .56-.53.51.51 0 0 1 .52.53.52.52 0 0 1-.53.55zm17.02-5.77a.53.53 0 0 1-.55-.55.53.53 0 0 1 .56-.53.51.51 0 0 1 .52.53.52.52 0 0 1-.53.55zm18.18 6.35a.53.53 0 0 1-.55-.55.53.53 0 0 1 .56-.53.51.51 0 0 1 .52.53.52.52 0 0 1-.53.55zM27 21.51a.53.53 0 0 1-.55-.55.53.53 0 0 1 .56-.53.51.51 0 0 1 .52.53.52.52 0 0 1-.53.55zm11.78 3.08a1.19 1.19 0 0 1-1.23-1.24 1.18 1.18 0 0 1 1.27-1.2A1.15 1.15 0 0 1 40 23.34a1.18 1.18 0 0 1-1.22 1.25zm-24.56 17.8a1 1 0 0 1-1.07-1.08 1 1 0 0 1 1.1-1 1 1 0 0 1 1 1 1 1 0 0 1-1.03 1.08zM53 46.9a.53.53 0 0 1-.55-.55.53.53 0 0 1 .56-.53.51.51 0 0 1 .52.53.52.52 0 0 1-.53.55zm-7.78-19.05a.53.53 0 0 1-.55-.55.53.53 0 0 1 .56-.53.51.51 0 0 1 .52.53.52.52 0 0 1-.53.55zm-25.11 4.91a.53.53 0 0 1-.55-.55.53.53 0 0 1 .56-.53.51.51 0 0 1 .52.53.52.52 0 0 1-.53.55zm2.6 4.04a.53.53 0 0 1-.55-.55.53.53 0 0 1 .56-.53.51.51 0 0 1 .52.53.52.52 0 0 1-.53.55zm27.9 4.81a1.19 1.19 0 0 1-1.23-1.24 1.18 1.18 0 0 1 1.27-1.2 1.15 1.15 0 0 1 1.17 1.19 1.18 1.18 0 0 1-1.21 1.25zM20.69 53a.53.53 0 0 1-.55-.55.53.53 0 0 1 .56-.53.51.51 0 0 1 .52.53.52.52 0 0 1-.53.55zm27.41-1.48a.53.53 0 0 1-.55-.55.53.53 0 0 1 .56-.53.51.51 0 0 1 .52.53.52.52 0 0 1-.53.55zm8.66-36.65a.53.53 0 0 1-.55-.55.53.53 0 0 1 .56-.53.51.51 0 0 1 .52.53.52.52 0 0 1-.53.55zm11.74 3.08a1.19 1.19 0 0 1-1.23-1.24 1.18 1.18 0 0 1 1.27-1.2 1.15 1.15 0 0 1 1.17 1.19 1.18 1.18 0 0 1-1.21 1.25zm13.25 3.67a1 1 0 0 1-1.07-1.08 1 1 0 0 1 1.1-1 1 1 0 0 1 1 1 1 1 0 0 1-1.03 1.08zm.98 18.64a.53.53 0 0 1-.55-.55.53.53 0 0 1 .56-.53.51.51 0 0 1 .52.53.52.52 0 0 1-.53.55zM66 27.85a.53.53 0 0 1-.55-.55.53.53 0 0 1 .56-.53.51.51 0 0 1 .52.53.52.52 0 0 1-.53.55zm2.59 4.04a.53.53 0 0 1-.55-.55.53.53 0 0 1 .56-.53.51.51 0 0 1 .52.53.52.52 0 0 1-.53.55zM18.38 68a.53.53 0 0 1-.55-.55.53.53 0 0 1 .56-.53.51.51 0 0 1 .52.53.52.52 0 0 1-.53.55zm59.45-23.12a.53.53 0 0 1-.55-.55.53.53 0 0 1 .56-.53.51.51 0 0 1 .52.53.52.52 0 0 1-.53.55zM44.55 33.24A1.19 1.19 0 0 1 43.33 32a1.18 1.18 0 0 1 1.27-1.2 1.15 1.15 0 0 1 1.17 1.2 1.18 1.18 0 0 1-1.22 1.24zM32.4 35.47a1 1 0 0 1-1.07-1.08 1 1 0 0 1 1.1-1 1 1 0 0 1 1 1 1 1 0 0 1-1.03 1.08zm26.38 20.09a.53.53 0 0 1-.55-.55.53.53 0 0 1 .56-.53.51.51 0 0 1 .52.53.52.52 0 0 1-.53.55zM51 36.51a.53.53 0 0 1-.55-.55.53.53 0 0 1 .56-.53.51.51 0 0 1 .52.53.52.52 0 0 1-.53.55zM27.62 53a.53.53 0 0 1-.55-.55.53.53 0 0 1 .56-.53.51.51 0 0 1 .52.53.52.52 0 0 1-.53.55zm17.02-5.81a.53.53 0 0 1-.55-.55.53.53 0 0 1 .56-.53.51.51 0 0 1 .52.53.52.52 0 0 1-.53.55zM30.12 65.85a1.19 1.19 0 0 1-1.23-1.24 1.18 1.18 0 0 1 1.27-1.2 1.15 1.15 0 0 1 1.17 1.19 1.18 1.18 0 0 1-1.21 1.25zm32.7-12.31a.53.53 0 0 1-.55-.55.53.53 0 0 1 .56-.53.51.51 0 0 1 .52.53.52.52 0 0 1-.53.55zm-8.94 6.63a.53.53 0 0 1-.55-.55.53.53 0 0 1 .56-.53.51.51 0 0 1 .52.53.52.52 0 0 1-.53.55zm-26.7-34.86a3.51 3.51 0 0 1-2 2.57 4 4 0 0 1-2.7-.41 2.75 2.75 0 0 1-1-3.31 3 3 0 0 1 2.91-1.95 2.7 2.7 0 0 1 2.47 2.16 4.87 4.87 0 0 0 .32.94z"/><path class="cls-3" d="M27.18 25.31a1.55 1.55 0 0 1-.39-.77 2.45 2.45 0 0 0-3-1.81 2.5 2.5 0 0 0-2 2.79 2.55 2.55 0 0 0 2.81 2.27c.23 0 .45-.09.64.09A3.3 3.3 0 0 1 21 23.4a3.42 3.42 0 0 1 3.14-1.8A3.26 3.26 0 0 1 27 24.24c.09.36.13.76.18 1.07z"/><path class="cls-1" d="M9.61 39.15a1.76 1.76 0 0 1 1-1.4 1.66 1.66 0 0 1 2.48 1.17A1.81 1.81 0 0 1 11.56 41a1.69 1.69 0 0 1-1.89-1.48c-.02-.12.02-.26-.06-.37z"/><path class="cls-3" d="M9.61 39.15c.08.22.15.43.23.65a1.51 1.51 0 0 0 1.83 1 1.57 1.57 0 0 0 1.18-1.85 1.6 1.6 0 0 0-1.77-1.25l-.49.09a1.92 1.92 0 0 1 2.67.54 2.1 2.1 0 0 1-.36 2.66 2 2 0 0 1-2.62-.07 2.06 2.06 0 0 1-.67-1.77z"/><path class="cls-3" d="M10.88 38.52a.22.22 0 0 1-.24.25.21.21 0 0 1-.22-.21c0-.15.05-.26.21-.28s.23.09.25.24zm24.46 18.95a11 11 0 0 1-11.23 11.08 11.19 11.19 0 1 1 .12-22.39 11.16 11.16 0 0 1 11.11 11.31z"/><path class="cls-1" d="M15 56.62c-.26-5.09 4.47-9.85 10-9.74a9.8 9.8 0 1 1-.43 19.6A9.72 9.72 0 0 1 15 56.62z"/><path class="cls-3" d="M30 52.86c-.76 0-1.12-.31-1.13-1a1 1 0 0 1 1.08-1.14 1 1 0 0 1 1 1.09 1 1 0 0 1-.95 1.05zM29.89 59a.51.51 0 0 1-.47.58.49.49 0 0 1-.57-.51.48.48 0 0 1 .47-.52.5.5 0 0 1 .57.45z"/><path class="cls-1" d="M43.57 78.78a3.49 3.49 0 0 1-2.71-2c-1-2.46.3-4.52 2.48-4.84A3.59 3.59 0 0 1 47.39 75a3.36 3.36 0 0 1-3.06 3.65c-.25.07-.53-.02-.76.13z"/><path class="cls-3" d="M43.57 78.78c.43-.14.87-.27 1.3-.42a3 3 0 0 0 2-3.57 3.12 3.12 0 0 0-3.59-2.45 3.17 3.17 0 0 0-2.58 3.43c0 .32.1.65.15 1a3.81 3.81 0 0 1 1.24-5.26 4.16 4.16 0 0 1 5.25.87 3.87 3.87 0 0 1-.34 5.16 4.08 4.08 0 0 1-3.43 1.24z"/><path class="cls-3" d="M42.4 76.23a.44.44 0 0 1 .48.48.42.42 0 0 1-.43.43c-.29 0-.52-.12-.53-.43s.19-.45.48-.48zm37.32-43.57a5.51 5.51 0 0 1 8.71 6.72 5.3 5.3 0 0 1-5 2.53A5.21 5.21 0 0 1 79 39.19a4.94 4.94 0 0 1-.38-4.74l.09.06c.3.39.08.81 0 1.2a4.43 4.43 0 0 0 8.81.93 4.49 4.49 0 0 0-3.49-4.92 4.41 4.41 0 0 0-3.41.69c-.26.17-.49.45-.86.32z"/><path class="cls-1" d="M79.73 32.66c.65-.27 1.13-.81 1.82-1.07A4.77 4.77 0 0 1 87.79 35a4.63 4.63 0 0 1-2.58 5.32A4.73 4.73 0 0 1 78.55 35c0-.18 0-.36.07-.54"/><path class="cls-3" d="M82.82 34.79a.68.68 0 0 1-.74.66.63.63 0 0 1-.62-.7.67.67 0 0 1 .69-.71c.41.02.62.34.67.75zm1.37 2.77a.36.36 0 0 1-.33.41.35.35 0 0 1-.4-.36.33.33 0 0 1 .33-.37.35.35 0 0 1 .4.32zm-7.74-11.98c-.22 6.85-8.11 13.24-21.18 13.25-11.93 0-21.09-5.74-21.06-13.34 0-7.81 9.16-13.33 21.28-13.41 11.58-.08 20.97 6.04 20.96 13.5z"/><path class="cls-1" d="M38.13 24.57c-.48-6.08 8.43-11.77 18.77-11.64 9.28.07 18.3 5.2 18.1 11.86-.13 6.21-8.3 11.69-18.92 11.56-9.61-.11-18.33-5.26-17.95-11.78z"/><path class="cls-3" d="M66.79 20.07c-1.08 0-1.58-.37-1.6-1.14s.61-1.35 1.53-1.36a1.3 1.3 0 0 1 1.46 1.3c-.02.78-.72 1.13-1.39 1.2zm-.63 7.31a.62.62 0 0 1-.6.7.61.61 0 0 1-.73-.61.58.58 0 0 1 .59-.63.63.63 0 0 1 .74.54zM52.21 55.32c.16 6.84 5.85 13.22 15.27 13.23 8.6 0 15.21-5.73 15.18-13.32 0-7.8-6.6-13.31-15.35-13.39-8.31-.08-15.11 6.03-15.1 13.48z"/><path class="cls-1" d="M79.84 54.31c.35-6.07-6.08-11.75-13.54-11.62-6.69.11-13.2 5.19-13.07 11.84.12 6.23 6 11.67 13.66 11.55 6.93-.08 13.22-5.26 12.95-11.77z"/><path class="cls-3" d="M59.51 49.82c1 0 1.52-.37 1.54-1.14s-.59-1.34-1.47-1.36a1.27 1.27 0 0 0-1.4 1.3c.01.78.69 1.1 1.33 1.2zm.12 7.3a.71.71 0 0 0 1.37.08.6.6 0 0 0-.63-.62.67.67 0 0 0-.74.54zM38.18 45.78a1.76 1.76 0 0 1 1-1.4 1.66 1.66 0 0 1 2.48 1.17 1.81 1.81 0 0 1-1.52 2.09 1.69 1.69 0 0 1-1.89-1.48c-.03-.16.01-.26-.07-.38z"/><path class="cls-3" d="M38.18 45.78c.08.22.15.43.23.65a1.51 1.51 0 0 0 1.83 1 1.57 1.57 0 0 0 1.18-1.85 1.6 1.6 0 0 0-1.77-1.25l-.49.09a1.92 1.92 0 0 1 2.67.54 2.1 2.1 0 0 1-.36 2.66 2 2 0 0 1-2.62-.07 2.06 2.06 0 0 1-.67-1.77z"/><path class="cls-3" d="M39.45 45.16a.22.22 0 0 1-.24.25.21.21 0 0 1-.22-.21c0-.15.05-.26.21-.28s.23.08.25.24z"/></svg>
